<svg xmlns="http://www.w3.org/2000/svg" version="1.1" xmlns:xlink="http://www.w3.org/1999/xlink" xmlns:svgjs="http://svgjs.com/svgjs" width="497" height="500"><svg xmlns="http://www.w3.org/2000/svg" width="497" height="500">
<path style="fill:#ffbd05; stroke:none;" d="M0 0L0 500L497 500L497 0L0 0z"></path>
<path style="fill:#231e19; stroke:none;" d="M273 207C267.296 208.467 261.99 212.319 257 215.425C246.138 222.188 235.821 229.725 226 237.92C190.925 267.185 162.133 302.877 130.91 335.996C117.069 350.679 94.2751 361.159 87 381C104.549 376.34 120.811 366.972 138 361.079C153.673 355.705 170.863 352.71 187 348.884C237.741 336.855 289.073 325.76 339 310.72C356.747 305.374 375.987 301.322 393 294C388.28 292.019 382.08 293 377 293C362.865 293 349.062 294.925 335 295.91C294.275 298.765 251.769 307.907 213 320.671C192.588 327.39 173.872 337.586 153 343C169.214 316.964 193.927 295.478 217 275.729C250.319 247.211 285.321 220.494 320 193.65C340.265 177.964 362.969 162.384 377.653 141C383.225 132.885 388.543 123.868 390 114C377.899 118.655 366.377 129.877 356 137.626C334.151 153.941 312.199 171.681 289 186C295.828 161.941 303.308 136.164 318.676 116C324.071 108.921 330.193 102.183 337 96.4391C341.293 92.8168 347.075 89.8351 350 85C316.031 85 287.71 117.741 273.245 146C268.494 155.281 263.783 165.388 263.09 176C262.732 181.491 263.964 187.164 266.649 191.985C269.907 197.834 272.975 199.898 273 207z"></path>
</svg><style>@media (prefers-color-scheme: light) { :root { filter: none; } }
</style></svg>